<svg width="258" height="61" viewBox="0 0 258 61" fill="none" xmlns="http://www.w3.org/2000/svg">
<path d="M0.522727 47V0.454544H19.9318C23.4167 0.454544 26.3333 0.946968 28.6818 1.93182C31.0455 2.91666 32.8182 4.29545 34 6.06818C35.197 7.84091 35.7955 9.89394 35.7955 12.2273C35.7955 14 35.4242 15.5833 34.6818 16.9773C33.9394 18.3561 32.9167 19.5 31.6136 20.4091C30.3106 21.3182 28.803 21.9545 27.0909 22.3182V22.7727C28.9697 22.8636 30.7045 23.3712 32.2955 24.2955C33.9015 25.2197 35.1894 26.5076 36.1591 28.1591C37.1288 29.7955 37.6136 31.7348 37.6136 33.9773C37.6136 36.4773 36.9773 38.7121 35.7045 40.6818C34.4318 42.6364 32.5909 44.1818 30.1818 45.3182C27.7727 46.4394 24.8485 47 21.4091 47H0.522727ZM11.7727 37.9318H18.7273C21.1667 37.9318 22.9621 37.4697 24.1136 36.5455C25.2803 35.6212 25.8636 34.3333 25.8636 32.6818C25.8636 31.4848 25.5833 30.4545 25.0227 29.5909C24.4621 28.7121 23.6667 28.0379 22.6364 27.5682C21.6061 27.0833 20.3712 26.8409 18.9318 26.8409H11.7727V37.9318ZM11.7727 19.5909H18C19.2273 19.5909 20.3182 19.3864 21.2727 18.9773C22.2273 18.5682 22.9697 17.9773 23.5 17.2045C24.0455 16.4318 24.3182 15.5 24.3182 14.4091C24.3182 12.8485 23.7652 11.6212 22.6591 10.7273C21.553 9.83333 20.0606 9.38636 18.1818 9.38636H11.7727V19.5909ZM54.1364 0.454544V47H43.0227V0.454544H54.1364ZM71.0511 47.5909C68.8239 47.5909 66.8466 47.2197 65.1193 46.4773C63.4072 45.7197 62.0511 44.5833 61.0511 43.0682C60.0663 41.5379 59.5739 39.6212 59.5739 37.3182C59.5739 35.3788 59.9148 33.7424 60.5966 32.4091C61.2784 31.0758 62.2178 29.9924 63.4148 29.1591C64.6117 28.3258 65.9905 27.697 67.5511 27.2727C69.1117 26.8333 70.7784 26.5379 72.5511 26.3864C74.536 26.2045 76.1345 26.0152 77.3466 25.8182C78.5587 25.6061 79.4375 25.3106 79.983 24.9318C80.5436 24.5379 80.8239 23.9848 80.8239 23.2727V23.1591C80.8239 21.9924 80.4223 21.0909 79.6193 20.4545C78.8163 19.8182 77.733 19.5 76.3693 19.5C74.8996 19.5 73.7178 19.8182 72.8239 20.4545C71.9299 21.0909 71.3617 21.9697 71.1193 23.0909L60.8693 22.7273C61.1723 20.6061 61.9527 18.7121 63.2102 17.0455C64.483 15.3636 66.2254 14.0455 68.4375 13.0909C70.6648 12.1212 73.339 11.6364 76.4602 11.6364C78.6875 11.6364 80.7405 11.9015 82.6193 12.4318C84.4981 12.947 86.1345 13.7045 87.5284 14.7045C88.9223 15.6894 89.9981 16.9015 90.7557 18.3409C91.5284 19.7803 91.9148 21.4242 91.9148 23.2727V47H81.4602V42.1364H81.1875C80.5663 43.3182 79.7708 44.3182 78.8011 45.1364C77.8466 45.9545 76.7178 46.5682 75.4148 46.9773C74.1269 47.3864 72.6723 47.5909 71.0511 47.5909ZM74.483 40.3182C75.6799 40.3182 76.7557 40.0758 77.7102 39.5909C78.6799 39.1061 79.4527 38.4394 80.0284 37.5909C80.6042 36.7273 80.892 35.7273 80.892 34.5909V31.2727C80.5739 31.4394 80.1875 31.5909 79.733 31.7273C79.2936 31.8636 78.8087 31.9924 78.2784 32.1136C77.7481 32.2348 77.2027 32.3409 76.642 32.4318C76.0814 32.5227 75.5436 32.6061 75.0284 32.6818C73.983 32.8485 73.089 33.1061 72.3466 33.4545C71.6193 33.803 71.0587 34.2576 70.6648 34.8182C70.286 35.3636 70.0966 36.0152 70.0966 36.7727C70.0966 37.9242 70.5057 38.803 71.3239 39.4091C72.1572 40.0152 73.2102 40.3182 74.483 40.3182ZM115.006 47.6591C111.324 47.6591 108.165 46.9015 105.528 45.3864C102.907 43.8712 100.892 41.7652 99.483 39.0682C98.0739 36.3561 97.3693 33.2197 97.3693 29.6591C97.3693 26.0833 98.0739 22.947 99.483 20.25C100.907 17.5379 102.93 15.4242 105.551 13.9091C108.188 12.3939 111.331 11.6364 114.983 11.6364C118.21 11.6364 121.021 12.2197 123.415 13.3864C125.824 14.553 127.703 16.2045 129.051 18.3409C130.415 20.4621 131.134 22.9545 131.21 25.8182H120.824C120.612 24.0303 120.006 22.6288 119.006 21.6136C118.021 20.5985 116.733 20.0909 115.142 20.0909C113.854 20.0909 112.725 20.4545 111.756 21.1818C110.786 21.8939 110.028 22.9545 109.483 24.3636C108.953 25.7576 108.688 27.4848 108.688 29.5455C108.688 31.6061 108.953 33.3485 109.483 34.7727C110.028 36.1818 110.786 37.25 111.756 37.9773C112.725 38.6894 113.854 39.0455 115.142 39.0455C116.172 39.0455 117.081 38.8258 117.869 38.3864C118.672 37.947 119.331 37.303 119.847 36.4545C120.362 35.5909 120.688 34.5455 120.824 33.3182H131.21C131.104 36.197 130.384 38.7121 129.051 40.8636C127.733 43.0152 125.877 44.6894 123.483 45.8864C121.104 47.0682 118.278 47.6591 115.006 47.6591ZM146.92 37.8409L146.966 24.5909H148.511L158.33 12.0909H170.92L156.33 30H153.398L146.92 37.8409ZM136.898 47V0.454544H148.011V47H136.898ZM158.58 47L149.443 32.5L156.761 24.6136L171.42 47H158.58Z" fill="white"/>
<path d="M188.648 47V0.454544H220.42V9.59091H199.898V19.1364H218.398V28.2955H199.898V47H188.648ZM230.693 60.0909C229.36 60.0909 228.102 59.9848 226.92 59.7727C225.739 59.5758 224.723 59.3106 223.875 58.9773L226.33 50.9091C227.42 51.2727 228.405 51.4848 229.284 51.5455C230.178 51.6061 230.943 51.4621 231.58 51.1136C232.231 50.7803 232.731 50.1818 233.08 49.3182L233.511 48.2727L221.102 12.0909H232.739L239.17 37H239.534L246.057 12.0909H257.761L244.602 50.3409C243.966 52.25 243.064 53.9318 241.898 55.3864C240.746 56.8561 239.254 58.0076 237.42 58.8409C235.602 59.6742 233.36 60.0909 230.693 60.0909Z" fill="white"/>
</svg>
